<?xml version="1.0" encoding="utf-8"?>
<!-- Generator: Adobe Illustrator 22.1.0, SVG Export Plug-In . SVG Version: 6.00 Build 0)  -->
<svg version="1.1" id="Layer_1" xmlns="http://www.w3.org/2000/svg" xmlns:xlink="http://www.w3.org/1999/xlink" x="0px" y="0px"
	 viewBox="0 0 512 512" style="enable-background:new 0 0 512 512;" xml:space="preserve">
<style type="text/css">
	.st0{fill:#E8E8E8;stroke:#27326E;stroke-width:4;stroke-miterlimit:10;}
	.st1{fill:#27326E;}
	.st2{fill:#FDBF12;}
	.st3{fill:#F7931E;}
	.st4{opacity:0.38;fill:#BD932E;}
</style>
<path class="st0" d="M443,202.3c0,149.7-169,288.4-169,288.4c-9.9,8.1-26,8.1-35.9,0c0,0-169-138.7-169-288.4
	c0-103.3,83.7-187,187-187S443,99,443,202.3z"/>
<g>
	<path class="st1" d="M393.4,198.3L393.4,198.3c-4.9-52.2-38.2-96.6-86.9-115.9l-3.5-1.4v-7.5c0-13.3-10.8-24-24-24h-45.8
		c-13.3,0-24,10.8-24,24V81l-3.5,1.4c-48.7,19.3-82,63.7-86.9,115.9l0,0H106v46.9c0,13.3,10.8,24,24,24H382c13.3,0,24-10.8,24-24
		v-46.9H393.4z"/>
	<path class="st2" d="M301.8,94v105.3h79C376.4,152.2,345.9,111.5,301.8,94z"/>
	<g>
		<path class="st2" d="M143.4,210.8h-24.8v34.4c0,6.3,5.1,11.5,11.5,11.5h13.4H382c6.3,0,11.5-5.1,11.5-11.5v-34.4H143.4z"/>
		<path class="st2" d="M206.5,199.4h3.7V94c-2.6,1-5.1,2.1-7.6,3.3c-0.3,0.2-0.6,0.3-0.9,0.5c-39.4,19.1-66.3,57.5-70.4,101.6h28.6
			H206.5z"/>
		<path class="st2" d="M290.4,73.4c0-6.3-5.1-11.5-11.5-11.5h-45.8c-6.3,0-11.5,5.1-11.5,11.5v126h68.7V73.4z"/>
	</g>
	<path class="st3" d="M278.9,62h-45.8c-6.3,0-11.5,5.1-11.5,11.5v126h68.7v-126C290.4,67.1,285.2,62,278.9,62z"/>
	<g>
		<path class="st4" d="M118.6,210.8v34.4c0,6.3,5.1,11.5,11.5,11.5h13.4v-45.8H118.6z"/>
		<path class="st4" d="M131.2,199.4h28.6c1.7-18.1,9.1-65,41.8-101.6C162.2,116.9,135.3,155.3,131.2,199.4z"/>
		<path class="st4" d="M210.2,94c-2.6,1-5.1,2.1-7.6,3.3l3.9,102h3.7V94z"/>
	</g>
	<g>
		<circle class="st1" cx="277.5" cy="132.1" r="6.1"/>
	</g>
	<g>
		<rect x="202.3" y="207" class="st3" width="107.5" height="24.6"/>
		<path class="st1" d="M309.7,236H202.3c-2.4,0-4.3-1.9-4.3-4.3V207c0-2.4,1.9-4.3,4.3-4.3h107.5c2.4,0,4.3,1.9,4.3,4.3v24.6
			C314.1,234,312.1,236,309.7,236z M206.6,227.3h98.8v-16h-98.8V227.3z"/>
		<rect x="175.9" y="227.6" class="st3" width="160.2" height="21.3"/>
		<path class="st1" d="M336.1,253.2H175.9c-2.4,0-4.3-1.9-4.3-4.3v-21.3c0-2.4,1.9-4.3,4.3-4.3h160.2c2.4,0,4.3,1.9,4.3,4.3v21.3
			C340.4,251.2,338.5,253.2,336.1,253.2z M180.2,244.5h151.6v-12.6H180.2V244.5z"/>
		<rect x="155" y="248.8" class="st3" width="202" height="21.3"/>
		<path class="st1" d="M357,274.4H155c-2.4,0-4.3-1.9-4.3-4.3v-21.3c0-2.4,1.9-4.3,4.3-4.3h202c2.4,0,4.3,1.9,4.3,4.3v21.3
			C361.3,272.5,359.4,274.4,357,274.4z M159.3,265.8h193.4v-12.6H159.3V265.8z"/>
	</g>
</g>
</svg>
